<svg id="Layer_1" data-name="Layer 1" xmlns="http://www.w3.org/2000/svg" viewBox="0 0 200 200"><defs><style>.cls-1{fill:#222;}.cls-2{fill:#009fe3;}.cls-3{fill:#fff;}</style></defs><circle class="cls-1" cx="100" cy="100" r="100"/><path class="cls-2" d="M49.3,31.1C78.4,6.3,123,4.5,154.7,25.8a7.2,7.2,0,1,1-8.6,11.5,77.9,77.9,0,0,0-21.3-12.8c-24.1-9.9-53-6.9-74.9,7.4a.5.5,0,0,1-.7-.1.6.6,0,0,1,.1-.7Z"/><path class="cls-2" d="M185,90.5c6.9,37.7-13.8,77.1-48.1,94a7.2,7.2,0,1,1-5.7-13.2A77.8,77.8,0,0,0,153,159.2c20.6-15.9,32.5-42.4,31-68.6a.5.5,0,0,1,.5-.5.7.7,0,0,1,.5.4Z"/><path class="cls-2" d="M65.7,178.3C29.6,165.6,5.8,127.9,8.4,89.7a7.2,7.2,0,1,1,14.3,1.7,76.9,76.9,0,0,0-.5,24.9c3.5,25.8,20.5,49.3,43.9,61.1.3.1.3.4.2.7a.5.5,0,0,1-.6.2Z"/><path class="cls-3" d="M120.2,66.9c-5.6-3.8-12.3-5.7-20-5.7A32.2,32.2,0,0,0,82.9,66a31.9,31.9,0,0,0-12,13.8A20.5,20.5,0,0,1,52.4,91.4H47.7a59.1,59.1,0,0,1,6.2-20.5A48.3,48.3,0,0,1,72.5,51c8-4.8,17.5-7.1,28.1-7.1,13.8,0,25.3,3.5,34.3,10.6h0c8.5,6.6,14.3,15.5,17.4,26.6H131.9A32.6,32.6,0,0,0,120.2,66.9Zm11.7,52.4h20.4c-3.1,11.1-8.9,20.1-17.4,26.7s-15.9,9-26,10.1v-17a1,1,0,0,1,.7-.9,31.9,31.9,0,0,0,22.3-18.9Z"/></svg>